# xmcd
#
# Track frame offsets:
#	150
#	17070
#	33732
#	56395
#	82690
#
# Disc length: 1428 seconds
#
# Revision: 1
# Processed by: cddbd v1.5.2PL0 Copyright (c) Steve Scherf et al.
# Submitted via: audiograbber 1.83.01
#
DISCID=2f059205
DTITLE=Double X Voice feat. Manola - Everybody Get Up
DYEAR=2000
DGENRE=Eurodance
TTITLE0=Everybody Get Up (Downtown Radio Mix)
TTITLE1=Everybody Get Up (Original Radio Edit)
TTITLE2=Everybody Get Up (Max Extended Mix)
TTITLE3=Everybody Get Up (Matrix Dance Mix)
TTITLE4=Everybody Get Up (Random Mix)
EXTD=
EXTT0=
EXTT1=
EXTT2=
EXTT3=
EXTT4=
PLAYORDER=
